<?xml version="1.0" encoding="utf-8"?>
<!-- Generator: Adobe Illustrator 19.0.0, SVG Export Plug-In . SVG Version: 6.00 Build 0)  -->
<svg version="1.1" id="Camada_1" xmlns="http://www.w3.org/2000/svg" xmlns:xlink="http://www.w3.org/1999/xlink" x="0px" y="0px"
	 viewBox="-289 412.9 16 16" style="enable-background:new -289 412.9 16 16;" xml:space="preserve">
<style type="text/css">
	.st0{fill:#828282;}
</style>
<path id="Instagram_10_" class="st0" d="M-275.8,427.4h-10.4c0,0-0.1,0-0.1,0c-0.6-0.1-1-0.5-1.2-1.1c0-0.1,0-0.1,0-0.2v-10.4
	c0,0,0,0,0-0.1c0.1-0.6,0.5-1,1.1-1.2c0.1,0,0.1,0,0.2,0h10.4c0,0,0,0,0.1,0c0.6,0.1,1.1,0.5,1.2,1.1c0,0.1,0,0.1,0,0.2v10.4
	c0,0.1,0,0.1,0,0.2c-0.1,0.5-0.5,1-1.1,1.1C-275.7,427.3-275.8,427.3-275.8,427.4z M-286.1,419.7L-286.1,419.7c0,1.9,0,3.9,0,5.8
	c0,0.3,0.2,0.5,0.5,0.5c3,0,6.1,0,9.1,0c0.3,0,0.5-0.2,0.5-0.5c0-1.9,0-3.8,0-5.7v0h-1.2c0.2,0.6,0.2,1.1,0.2,1.7
	c-0.1,0.6-0.3,1.1-0.6,1.6c-0.3,0.5-0.7,0.9-1.2,1.2c-1.2,0.9-2.9,0.9-4.2,0.2c-0.7-0.4-1.2-0.9-1.6-1.6c-0.5-1-0.6-2.1-0.3-3.2
	C-285.2,419.7-285.7,419.7-286.1,419.7L-286.1,419.7z M-281,418.3c-1.4,0-2.6,1.2-2.6,2.6c0,1.5,1.2,2.6,2.6,2.7
	c1.5,0,2.6-1.1,2.7-2.6C-278.3,419.5-279.5,418.3-281,418.3L-281,418.3z M-277.1,417.7L-277.1,417.7c0.2,0,0.4,0,0.6,0
	c0.3,0,0.5-0.2,0.5-0.5c0-0.4,0-0.8,0-1.2c0-0.3-0.2-0.5-0.5-0.5c-0.4,0-0.8,0-1.2,0c-0.3,0-0.5,0.2-0.5,0.5c0,0.4,0,0.8,0,1.2
	c0,0.1,0,0.1,0,0.2c0.1,0.2,0.3,0.3,0.5,0.3C-277.5,417.7-277.3,417.7-277.1,417.7L-277.1,417.7z"/>
</svg>
