<?xml version="1.0" encoding="utf-8"?>
<!-- Generator: Adobe Illustrator 19.0.0, SVG Export Plug-In . SVG Version: 6.00 Build 0)  -->
<svg version="1.1" id="Camada_1" xmlns="http://www.w3.org/2000/svg" xmlns:xlink="http://www.w3.org/1999/xlink" x="0px" y="0px"
	 viewBox="-289 412.9 16 16" style="enable-background:new -289 412.9 16 16;" xml:space="preserve">
<style type="text/css">
	.st0{fill:#828282;}
	.st1{fill:#FFFFFF;}
</style>
<g>
	<g>
		<polygon class="st0" points="-284.1,414.4 -283.6,416.3 -283.5,416.3 -283,414.4 -282.2,414.4 -283.1,417.1 -283.1,419.1 
			-283.9,419.1 -283.9,417.2 -284.8,414.4 		"/>
		<g>
			<path class="st0" d="M-281.9,415.8c0.2-0.2,0.4-0.2,0.7-0.2c0.3,0,0.5,0.1,0.7,0.2c0.2,0.2,0.3,0.4,0.3,0.6v1.8
				c0,0.3-0.1,0.5-0.3,0.7c-0.2,0.2-0.4,0.3-0.7,0.3c-0.3,0-0.5-0.1-0.7-0.3c-0.2-0.2-0.3-0.4-0.3-0.7l0-1.8
				C-282.2,416.1-282.1,415.9-281.9,415.8z"/>
			<path class="st1" d="M-281.4,418.5c0,0.1,0.1,0.1,0.2,0.1c0.1,0,0.2,0,0.2-0.1c0.1-0.1,0.1-0.1,0.1-0.2v-1.9c0-0.1,0-0.1-0.1-0.2
				c-0.1,0-0.1-0.1-0.2-0.1c-0.1,0-0.2,0-0.2,0.1c-0.1,0-0.1,0.1-0.1,0.2v1.9C-281.5,418.3-281.5,418.4-281.4,418.5z"/>
		</g>
		<path class="st0" d="M-277.7,419.1h-0.7v-0.4c-0.1,0.1-0.3,0.2-0.4,0.3c-0.1,0.1-0.3,0.1-0.4,0.1c-0.2,0-0.3-0.1-0.4-0.2
			c-0.1-0.1-0.1-0.3-0.1-0.5v-2.9h0.7v2.6c0,0.1,0,0.1,0,0.2c0,0,0.1,0.1,0.1,0.1c0.1,0,0.1,0,0.2-0.1c0.1,0,0.1-0.1,0.2-0.2v-2.6
			h0.7V419.1z"/>
	</g>
	<g>
		<path class="st0" d="M-281,420.4c0,0-4.2,0-4.7,0.5c-0.5,0.5-0.5,3-0.5,3c0,0,0,2.5,0.5,3c0.5,0.5,4.7,0.5,4.7,0.5s4.2,0,4.7-0.5
			c0.5-0.5,0.5-3,0.5-3c0,0,0-2.5-0.5-3C-276.8,420.4-281,420.4-281,420.4z"/>
		<g>
			<polygon class="st1" points="-283.8,422.3 -283.8,425.9 -284.5,425.9 -284.5,422.3 -285.2,422.3 -285.2,421.7 -283.1,421.7 
				-283.1,422.3 			"/>
			<path class="st1" d="M-281.7,425.9v-0.3c-0.1,0.1-0.2,0.2-0.4,0.3c-0.1,0.1-0.2,0.1-0.4,0.1c-0.1,0-0.2,0-0.3-0.1
				c-0.1-0.1-0.1-0.2-0.1-0.4v-2.6h0.6v2.4c0,0.1,0,0.1,0,0.2c0,0,0.1,0,0.1,0c0,0,0.1,0,0.2-0.1c0.1,0,0.1-0.1,0.2-0.2v-2.4h0.6
				l0,3.1H-281.7z"/>
			<g>
				<path class="st1" d="M-279,425.8c-0.1,0.1-0.2,0.2-0.4,0.2c-0.1,0-0.2,0-0.3-0.1c-0.1,0-0.2-0.1-0.3-0.2v0.2h-0.6v-4.2h0.6v1.4
					c0.1-0.1,0.2-0.2,0.3-0.2c0.1,0,0.2-0.1,0.3-0.1c0.2,0,0.3,0.1,0.4,0.2c0.1,0.1,0.2,0.3,0.2,0.6v1.7
					C-278.9,425.5-278.9,425.7-279,425.8z"/>
				<path class="st0" d="M-279.8,423.3c0,0-0.1,0-0.1,0c0,0-0.1,0.1-0.1,0.1v1.9c0,0.1,0.1,0.1,0.1,0.1c0,0,0.1,0,0.1,0
					c0.1,0,0.1,0,0.2-0.1c0,0,0.1-0.1,0.1-0.2v-1.6c0-0.1,0-0.2-0.1-0.2C-279.6,423.3-279.7,423.3-279.8,423.3z"/>
			</g>
			<g>
				<path class="st1" d="M-277.9,424.5v0.6c0,0.2,0,0.3,0.1,0.3c0,0.1,0.1,0.1,0.2,0.1c0.1,0,0.2,0,0.2-0.1c0-0.1,0.1-0.2,0.1-0.4
					v-0.1h0.6v0.2c0,0.3-0.1,0.6-0.2,0.7c-0.2,0.2-0.4,0.2-0.7,0.2c-0.3,0-0.5-0.1-0.6-0.3c-0.2-0.2-0.2-0.4-0.2-0.7v-1.4
					c0-0.3,0.1-0.5,0.3-0.7c0.2-0.2,0.4-0.3,0.7-0.3c0.3,0,0.5,0.1,0.6,0.2c0.2,0.2,0.2,0.4,0.2,0.7v0.8L-277.9,424.5z"/>
				<path class="st0" d="M-277.7,423.3c-0.1,0-0.2,0-0.2,0.1c0,0.1-0.1,0.1-0.1,0.3v0.3h0.5v-0.3c0-0.1,0-0.2-0.1-0.3
					C-277.5,423.3-277.6,423.3-277.7,423.3z"/>
			</g>
		</g>
	</g>
</g>
</svg>
