<?xml version="1.0" encoding="utf-8"?>
<!-- Generator: Adobe Illustrator 19.0.0, SVG Export Plug-In . SVG Version: 6.00 Build 0)  -->
<svg version="1.1" id="Camada_1" xmlns="http://www.w3.org/2000/svg" xmlns:xlink="http://www.w3.org/1999/xlink" x="0px" y="0px"
	 viewBox="-289 412.9 16 16" style="enable-background:new -289 412.9 16 16;" xml:space="preserve">
<style type="text/css">
	.st0{fill:#828282;}
</style>
<path class="st0" d="M-287.9,418.7c0,0,1.3-1,1.7-0.5c0.4,0.5,2,6.4,2.5,7.5c0.5,1,1.7,2.2,3.1,1.3c1.4-0.9,6.1-4.9,6.9-9.5
	c0.8-4.7-5.6-3.7-6.3,0.4c1.7-1,2.6,0.4,1.7,2c-0.9,1.6-1.7,2.7-2.1,2.7c-0.4,0-0.7-1.1-1.2-3c-0.5-2-0.5-5.5-2.5-5.1
	c-1.9,0.4-4.5,3.4-4.5,3.4L-287.9,418.7z"/>
</svg>
